<svg width="514" height="504" viewBox="0 0 514 504" fill="none" xmlns="http://www.w3.org/2000/svg">
  <path d="M123.5 418L210 394.5L297 418L155.5 496.5L123.5 480V418Z" fill="#F9F6F9" />
  <rect x="14" y="9" width="487" height="412" rx="76" fill="#DDDAEC" />
  <rect x="119" y="382" width="52" height="115" rx="26" fill="#DDDAEC" />
  <rect x="151" y="367" width="52" height="119" rx="23" fill="#F9F6F9" />
  <rect x="39" y="9" width="462" height="414" rx="76" fill="#F9F6F9" />
  <path
    d="M239.103 148.5L220.5 165L196.5 157L135 158.5L109.5 214.5L125.5 253.5L170 277L212 260L226.5 252L240.5 261L247 278L229.5 301L189.5 314.5L134 309.5L97.5 280L78 253.5L70 192L90.5 150L116 125.5L137.5 113.5L210 111L234 128L239.103 148.5Z"
    fill="#DF75A5" />
  <path
    d="M239.103 148.5L220.5 165L196.5 157L135 158.5L109.5 214.5L125.5 253.5L170 277L212 260L226.5 252L240.5 261L247 278L229.5 301L189.5 314.5L134 309.5L97.5 280L78 253.5L70 192L90.5 150L116 125.5L137.5 113.5L210 111L234 128L239.103 148.5Z"
    fill="#DF75A5" />
  <path
    d="M434.103 148.5L415.5 165L391.5 157L330 158.5L304.5 214.5L320.5 253.5L365 277L407 260L421.5 252L435.5 261L442 278L424.5 301L384.5 314.5L329 309.5L292.5 280L273 253.5L265 192L285.5 150L311 125.5L332.5 113.5L405 111L429 128L434.103 148.5Z"
    fill="#DF75A5" />
  <path d="M284.5 160.5L325 122C274.298 189.862 270.838 229.349 320.5 303L284.5 265.5L269 218.5L284.5 160.5Z"
    fill="#DD5790" />
  <path d="M92 148L119.5 122L126.5 118.5C75.7985 186.362 71.8381 229.349 121.5 303L85.5 265.5L70 218.5L92 148Z"
    fill="#DD5790" />
  <mask id="path-11-outside-1_2_22" maskUnits="userSpaceOnUse" x="0" y="0" width="514" height="504" fill="black">
    <rect fill="white" width="514" height="504" />
    <path fill-rule="evenodd" clip-rule="evenodd"
      d="M64.511 2.47939C39.015 7.91539 15.062 27.8314 6.48504 50.7274C0.636039 66.3384 1.01104 54.9954 1.01104 216.434C1.01104 382.62 0.387039 368.573 8.52204 385.512C16.415 401.947 28.73 414.429 45.011 422.495C59.82 429.832 66.035 430.934 92.588 430.934H115.345L115.721 453.184C116.16 479.123 117.156 483.136 125.31 491.815C132.348 499.307 139.774 502.434 150.525 502.434C161.099 502.434 157.749 504.009 236.395 462.069L294.779 430.934H335.145C374.178 430.934 375.577 430.868 377.511 428.934C380.206 426.239 380.153 420.825 377.406 418.339C375.405 416.528 373.189 416.434 332.656 416.434H290.011L223.511 451.853C149.221 491.421 151.899 490.316 142.027 485.485C137.8 483.417 135.865 481.691 133.76 478.11L131.011 473.434L130.511 446.717C130.064 422.821 129.823 419.812 128.227 418.217C126.622 416.612 123.472 416.38 96.727 415.897C69.134 415.399 66.547 415.197 60.511 413.08C37.604 405.041 20.295 384.822 16.546 361.721C15.888 357.663 15.523 305.868 15.519 215.642C15.51 59.1994 15.136 67.7364 22.7 51.9904C30.74 35.2534 48.669 21.2714 67.011 17.4334C77.53 15.2324 435.492 15.2324 446.011 17.4334C464.375 21.2764 482.094 35.0544 490.376 51.9344C497.875 67.2174 497.476 58.0024 497.476 215.934C497.476 371.549 497.754 364.239 491.314 378.211C483.716 394.694 470.75 406.455 453.239 412.747C446.473 415.178 444.526 415.379 422.786 415.889C400.58 416.41 399.466 416.53 397.37 418.628C394.678 421.323 394.503 426.163 396.999 428.921C398.721 430.823 400.044 430.934 421.006 430.934C446.927 430.934 453.279 429.793 468.011 422.495C484.293 414.428 496.611 401.942 504.498 385.512C512.582 368.669 511.91 382.859 512.29 220.934C512.541 114.266 512.324 74.4704 511.463 68.9344C506.336 35.9904 480.891 9.25739 448.24 2.51339C441.427 1.10639 420.486 0.943388 255.803 1.01339C102.326 1.08039 69.91 1.32839 64.511 2.47939ZM154.011 103.401C138.579 106.439 117.839 115.022 111.403 121.035C106.911 125.231 108.179 132.337 113.749 134.184C116.717 135.169 116.014 135.445 130.674 127.536C143.602 120.562 155.601 117.701 172.511 117.562C182.427 117.48 188.106 117.939 193.902 119.292C209.01 122.817 227.199 131.735 230.575 137.271C234.987 144.507 231.645 154.415 223.933 156.96C219.201 158.521 215.552 157.691 208.674 153.49C205.559 151.587 199.411 148.78 195.011 147.252C187.815 144.754 185.654 144.472 173.511 144.454C158.637 144.432 151.858 145.998 140.333 152.12C124.21 160.684 110.549 178.452 105.879 196.934C103.777 205.251 103.784 220.357 105.894 229.245C111.71 253.747 131.786 274.071 156.511 280.487C164.478 282.555 180.022 282.819 187.511 281.015C195.859 279.003 206.102 273.204 212.496 266.869C219.858 259.576 223.98 258.078 230.178 260.444C235.515 262.483 238.502 266.71 238.507 272.234C238.512 277.349 236.737 280.391 229.837 287.091C214.804 301.687 195.995 308.95 173.303 308.921C118.819 308.851 75.07 262.801 77.838 208.434C78.151 202.278 79.324 193.911 80.502 189.434C83.107 179.533 90.92 163.405 96.965 155.454C102.427 148.268 102.963 144.221 98.876 141.007C93.384 136.686 89.244 138.974 81.329 150.704C74.615 160.654 69.159 172.462 65.927 184.041C63.839 191.52 63.198 196.454 62.782 208.255C61.983 230.921 65.047 245.347 74.607 263.934C95.424 304.405 139.127 328.441 183.6 323.877C202.705 321.916 219.746 315.206 233.623 304.178C251.573 289.914 256.898 278.463 252.572 263.434C250.64 256.725 242.063 247.984 235.083 245.61C223.553 241.689 214.666 244.119 203.846 254.151C193.954 263.324 187.707 266.196 176.462 266.743C160.097 267.54 146.874 262.504 135.522 251.152C105.165 220.795 120.322 169.286 162.224 160.407C176.189 157.448 187.053 159.32 201.364 167.152C210.868 172.353 211.137 172.431 219.511 172.433C227.073 172.434 228.604 172.105 233.39 169.455C249.857 160.335 253.222 138.027 240.138 124.721C232.866 117.326 215.638 108.935 199.374 104.865C188.545 102.156 164.308 101.373 154.011 103.401ZM350.845 103.351C301.456 112.753 264.849 152.427 259.471 202.38C256.539 229.606 264.959 258.952 281.979 280.831C301.413 305.813 328.983 320.93 360.607 323.943C390.438 326.785 418.497 317.017 438.791 296.723C447.601 287.913 450.491 281.913 450.491 272.434C450.491 256.352 438.02 243.934 421.867 243.934C414.531 243.934 407.693 247.272 400.122 254.55C390.927 263.389 384.93 266.086 373.098 266.704C357.668 267.51 344.901 262.933 333.872 252.641C322.207 241.755 316.511 228.949 316.511 213.606C316.511 198.367 321.581 185.845 331.989 175.377C339.482 167.84 347.037 163.485 357.068 160.919C371.68 157.182 383.37 158.946 398.364 167.152C407.878 172.358 408.128 172.431 416.511 172.421C423.369 172.412 425.821 171.979 429.205 170.18C447.36 160.528 450.36 136.974 435.173 123.32C428.411 117.24 410.582 108.612 398.011 105.335C385.642 102.111 362.477 101.136 350.845 103.351ZM383.147 118.016C401.29 120.54 424.332 130.819 428.076 138.061C431.542 144.761 428.475 153.798 421.787 156.592C416.919 158.626 412.927 157.86 405.393 153.444C390.984 144.999 371.934 141.855 355.854 145.269C330.576 150.634 309.761 170.606 302.916 196.062C300.606 204.652 300.561 221.315 302.824 229.934C307.947 249.439 322.191 266.865 340.011 275.426C350.323 280.379 358.461 282.234 370.011 282.263C386.52 282.305 396.869 278.256 408.997 267.011C417.696 258.946 421.153 257.797 427.835 260.753C434.614 263.752 437.518 272.153 434.076 278.808C431.886 283.043 420.379 293.329 412.782 297.842C400.322 305.245 385.931 308.943 369.673 308.921C345.044 308.887 323.084 299.962 304.816 282.561C285.663 264.316 275.99 243.489 274.803 217.934C274.154 203.988 275.46 194.739 279.92 181.672C294.497 138.96 338.526 111.81 383.147 118.016Z" />
  </mask>
  <path fill-rule="evenodd" clip-rule="evenodd"
    d="M64.511 2.47939C39.015 7.91539 15.062 27.8314 6.48504 50.7274C0.636039 66.3384 1.01104 54.9954 1.01104 216.434C1.01104 382.62 0.387039 368.573 8.52204 385.512C16.415 401.947 28.73 414.429 45.011 422.495C59.82 429.832 66.035 430.934 92.588 430.934H115.345L115.721 453.184C116.16 479.123 117.156 483.136 125.31 491.815C132.348 499.307 139.774 502.434 150.525 502.434C161.099 502.434 157.749 504.009 236.395 462.069L294.779 430.934H335.145C374.178 430.934 375.577 430.868 377.511 428.934C380.206 426.239 380.153 420.825 377.406 418.339C375.405 416.528 373.189 416.434 332.656 416.434H290.011L223.511 451.853C149.221 491.421 151.899 490.316 142.027 485.485C137.8 483.417 135.865 481.691 133.76 478.11L131.011 473.434L130.511 446.717C130.064 422.821 129.823 419.812 128.227 418.217C126.622 416.612 123.472 416.38 96.727 415.897C69.134 415.399 66.547 415.197 60.511 413.08C37.604 405.041 20.295 384.822 16.546 361.721C15.888 357.663 15.523 305.868 15.519 215.642C15.51 59.1994 15.136 67.7364 22.7 51.9904C30.74 35.2534 48.669 21.2714 67.011 17.4334C77.53 15.2324 435.492 15.2324 446.011 17.4334C464.375 21.2764 482.094 35.0544 490.376 51.9344C497.875 67.2174 497.476 58.0024 497.476 215.934C497.476 371.549 497.754 364.239 491.314 378.211C483.716 394.694 470.75 406.455 453.239 412.747C446.473 415.178 444.526 415.379 422.786 415.889C400.58 416.41 399.466 416.53 397.37 418.628C394.678 421.323 394.503 426.163 396.999 428.921C398.721 430.823 400.044 430.934 421.006 430.934C446.927 430.934 453.279 429.793 468.011 422.495C484.293 414.428 496.611 401.942 504.498 385.512C512.582 368.669 511.91 382.859 512.29 220.934C512.541 114.266 512.324 74.4704 511.463 68.9344C506.336 35.9904 480.891 9.25739 448.24 2.51339C441.427 1.10639 420.486 0.943388 255.803 1.01339C102.326 1.08039 69.91 1.32839 64.511 2.47939ZM154.011 103.401C138.579 106.439 117.839 115.022 111.403 121.035C106.911 125.231 108.179 132.337 113.749 134.184C116.717 135.169 116.014 135.445 130.674 127.536C143.602 120.562 155.601 117.701 172.511 117.562C182.427 117.48 188.106 117.939 193.902 119.292C209.01 122.817 227.199 131.735 230.575 137.271C234.987 144.507 231.645 154.415 223.933 156.96C219.201 158.521 215.552 157.691 208.674 153.49C205.559 151.587 199.411 148.78 195.011 147.252C187.815 144.754 185.654 144.472 173.511 144.454C158.637 144.432 151.858 145.998 140.333 152.12C124.21 160.684 110.549 178.452 105.879 196.934C103.777 205.251 103.784 220.357 105.894 229.245C111.71 253.747 131.786 274.071 156.511 280.487C164.478 282.555 180.022 282.819 187.511 281.015C195.859 279.003 206.102 273.204 212.496 266.869C219.858 259.576 223.98 258.078 230.178 260.444C235.515 262.483 238.502 266.71 238.507 272.234C238.512 277.349 236.737 280.391 229.837 287.091C214.804 301.687 195.995 308.95 173.303 308.921C118.819 308.851 75.07 262.801 77.838 208.434C78.151 202.278 79.324 193.911 80.502 189.434C83.107 179.533 90.92 163.405 96.965 155.454C102.427 148.268 102.963 144.221 98.876 141.007C93.384 136.686 89.244 138.974 81.329 150.704C74.615 160.654 69.159 172.462 65.927 184.041C63.839 191.52 63.198 196.454 62.782 208.255C61.983 230.921 65.047 245.347 74.607 263.934C95.424 304.405 139.127 328.441 183.6 323.877C202.705 321.916 219.746 315.206 233.623 304.178C251.573 289.914 256.898 278.463 252.572 263.434C250.64 256.725 242.063 247.984 235.083 245.61C223.553 241.689 214.666 244.119 203.846 254.151C193.954 263.324 187.707 266.196 176.462 266.743C160.097 267.54 146.874 262.504 135.522 251.152C105.165 220.795 120.322 169.286 162.224 160.407C176.189 157.448 187.053 159.32 201.364 167.152C210.868 172.353 211.137 172.431 219.511 172.433C227.073 172.434 228.604 172.105 233.39 169.455C249.857 160.335 253.222 138.027 240.138 124.721C232.866 117.326 215.638 108.935 199.374 104.865C188.545 102.156 164.308 101.373 154.011 103.401ZM350.845 103.351C301.456 112.753 264.849 152.427 259.471 202.38C256.539 229.606 264.959 258.952 281.979 280.831C301.413 305.813 328.983 320.93 360.607 323.943C390.438 326.785 418.497 317.017 438.791 296.723C447.601 287.913 450.491 281.913 450.491 272.434C450.491 256.352 438.02 243.934 421.867 243.934C414.531 243.934 407.693 247.272 400.122 254.55C390.927 263.389 384.93 266.086 373.098 266.704C357.668 267.51 344.901 262.933 333.872 252.641C322.207 241.755 316.511 228.949 316.511 213.606C316.511 198.367 321.581 185.845 331.989 175.377C339.482 167.84 347.037 163.485 357.068 160.919C371.68 157.182 383.37 158.946 398.364 167.152C407.878 172.358 408.128 172.431 416.511 172.421C423.369 172.412 425.821 171.979 429.205 170.18C447.36 160.528 450.36 136.974 435.173 123.32C428.411 117.24 410.582 108.612 398.011 105.335C385.642 102.111 362.477 101.136 350.845 103.351ZM383.147 118.016C401.29 120.54 424.332 130.819 428.076 138.061C431.542 144.761 428.475 153.798 421.787 156.592C416.919 158.626 412.927 157.86 405.393 153.444C390.984 144.999 371.934 141.855 355.854 145.269C330.576 150.634 309.761 170.606 302.916 196.062C300.606 204.652 300.561 221.315 302.824 229.934C307.947 249.439 322.191 266.865 340.011 275.426C350.323 280.379 358.461 282.234 370.011 282.263C386.52 282.305 396.869 278.256 408.997 267.011C417.696 258.946 421.153 257.797 427.835 260.753C434.614 263.752 437.518 272.153 434.076 278.808C431.886 283.043 420.379 293.329 412.782 297.842C400.322 305.245 385.931 308.943 369.673 308.921C345.044 308.887 323.084 299.962 304.816 282.561C285.663 264.316 275.99 243.489 274.803 217.934C274.154 203.988 275.46 194.739 279.92 181.672C294.497 138.96 338.526 111.81 383.147 118.016Z"
    fill="black" />
  <path fill-rule="evenodd" clip-rule="evenodd"
    d="M64.511 2.47939C39.015 7.91539 15.062 27.8314 6.48504 50.7274C0.636039 66.3384 1.01104 54.9954 1.01104 216.434C1.01104 382.62 0.387039 368.573 8.52204 385.512C16.415 401.947 28.73 414.429 45.011 422.495C59.82 429.832 66.035 430.934 92.588 430.934H115.345L115.721 453.184C116.16 479.123 117.156 483.136 125.31 491.815C132.348 499.307 139.774 502.434 150.525 502.434C161.099 502.434 157.749 504.009 236.395 462.069L294.779 430.934H335.145C374.178 430.934 375.577 430.868 377.511 428.934C380.206 426.239 380.153 420.825 377.406 418.339C375.405 416.528 373.189 416.434 332.656 416.434H290.011L223.511 451.853C149.221 491.421 151.899 490.316 142.027 485.485C137.8 483.417 135.865 481.691 133.76 478.11L131.011 473.434L130.511 446.717C130.064 422.821 129.823 419.812 128.227 418.217C126.622 416.612 123.472 416.38 96.727 415.897C69.134 415.399 66.547 415.197 60.511 413.08C37.604 405.041 20.295 384.822 16.546 361.721C15.888 357.663 15.523 305.868 15.519 215.642C15.51 59.1994 15.136 67.7364 22.7 51.9904C30.74 35.2534 48.669 21.2714 67.011 17.4334C77.53 15.2324 435.492 15.2324 446.011 17.4334C464.375 21.2764 482.094 35.0544 490.376 51.9344C497.875 67.2174 497.476 58.0024 497.476 215.934C497.476 371.549 497.754 364.239 491.314 378.211C483.716 394.694 470.75 406.455 453.239 412.747C446.473 415.178 444.526 415.379 422.786 415.889C400.58 416.41 399.466 416.53 397.37 418.628C394.678 421.323 394.503 426.163 396.999 428.921C398.721 430.823 400.044 430.934 421.006 430.934C446.927 430.934 453.279 429.793 468.011 422.495C484.293 414.428 496.611 401.942 504.498 385.512C512.582 368.669 511.91 382.859 512.29 220.934C512.541 114.266 512.324 74.4704 511.463 68.9344C506.336 35.9904 480.891 9.25739 448.24 2.51339C441.427 1.10639 420.486 0.943388 255.803 1.01339C102.326 1.08039 69.91 1.32839 64.511 2.47939ZM154.011 103.401C138.579 106.439 117.839 115.022 111.403 121.035C106.911 125.231 108.179 132.337 113.749 134.184C116.717 135.169 116.014 135.445 130.674 127.536C143.602 120.562 155.601 117.701 172.511 117.562C182.427 117.48 188.106 117.939 193.902 119.292C209.01 122.817 227.199 131.735 230.575 137.271C234.987 144.507 231.645 154.415 223.933 156.96C219.201 158.521 215.552 157.691 208.674 153.49C205.559 151.587 199.411 148.78 195.011 147.252C187.815 144.754 185.654 144.472 173.511 144.454C158.637 144.432 151.858 145.998 140.333 152.12C124.21 160.684 110.549 178.452 105.879 196.934C103.777 205.251 103.784 220.357 105.894 229.245C111.71 253.747 131.786 274.071 156.511 280.487C164.478 282.555 180.022 282.819 187.511 281.015C195.859 279.003 206.102 273.204 212.496 266.869C219.858 259.576 223.98 258.078 230.178 260.444C235.515 262.483 238.502 266.71 238.507 272.234C238.512 277.349 236.737 280.391 229.837 287.091C214.804 301.687 195.995 308.95 173.303 308.921C118.819 308.851 75.07 262.801 77.838 208.434C78.151 202.278 79.324 193.911 80.502 189.434C83.107 179.533 90.92 163.405 96.965 155.454C102.427 148.268 102.963 144.221 98.876 141.007C93.384 136.686 89.244 138.974 81.329 150.704C74.615 160.654 69.159 172.462 65.927 184.041C63.839 191.52 63.198 196.454 62.782 208.255C61.983 230.921 65.047 245.347 74.607 263.934C95.424 304.405 139.127 328.441 183.6 323.877C202.705 321.916 219.746 315.206 233.623 304.178C251.573 289.914 256.898 278.463 252.572 263.434C250.64 256.725 242.063 247.984 235.083 245.61C223.553 241.689 214.666 244.119 203.846 254.151C193.954 263.324 187.707 266.196 176.462 266.743C160.097 267.54 146.874 262.504 135.522 251.152C105.165 220.795 120.322 169.286 162.224 160.407C176.189 157.448 187.053 159.32 201.364 167.152C210.868 172.353 211.137 172.431 219.511 172.433C227.073 172.434 228.604 172.105 233.39 169.455C249.857 160.335 253.222 138.027 240.138 124.721C232.866 117.326 215.638 108.935 199.374 104.865C188.545 102.156 164.308 101.373 154.011 103.401ZM350.845 103.351C301.456 112.753 264.849 152.427 259.471 202.38C256.539 229.606 264.959 258.952 281.979 280.831C301.413 305.813 328.983 320.93 360.607 323.943C390.438 326.785 418.497 317.017 438.791 296.723C447.601 287.913 450.491 281.913 450.491 272.434C450.491 256.352 438.02 243.934 421.867 243.934C414.531 243.934 407.693 247.272 400.122 254.55C390.927 263.389 384.93 266.086 373.098 266.704C357.668 267.51 344.901 262.933 333.872 252.641C322.207 241.755 316.511 228.949 316.511 213.606C316.511 198.367 321.581 185.845 331.989 175.377C339.482 167.84 347.037 163.485 357.068 160.919C371.68 157.182 383.37 158.946 398.364 167.152C407.878 172.358 408.128 172.431 416.511 172.421C423.369 172.412 425.821 171.979 429.205 170.18C447.36 160.528 450.36 136.974 435.173 123.32C428.411 117.24 410.582 108.612 398.011 105.335C385.642 102.111 362.477 101.136 350.845 103.351ZM383.147 118.016C401.29 120.54 424.332 130.819 428.076 138.061C431.542 144.761 428.475 153.798 421.787 156.592C416.919 158.626 412.927 157.86 405.393 153.444C390.984 144.999 371.934 141.855 355.854 145.269C330.576 150.634 309.761 170.606 302.916 196.062C300.606 204.652 300.561 221.315 302.824 229.934C307.947 249.439 322.191 266.865 340.011 275.426C350.323 280.379 358.461 282.234 370.011 282.263C386.52 282.305 396.869 278.256 408.997 267.011C417.696 258.946 421.153 257.797 427.835 260.753C434.614 263.752 437.518 272.153 434.076 278.808C431.886 283.043 420.379 293.329 412.782 297.842C400.322 305.245 385.931 308.943 369.673 308.921C345.044 308.887 323.084 299.962 304.816 282.561C285.663 264.316 275.99 243.489 274.803 217.934C274.154 203.988 275.46 194.739 279.92 181.672C294.497 138.96 338.526 111.81 383.147 118.016Z"
    stroke="black" stroke-width="2" mask="url(#path-11-outside-1_2_22)" />
</svg>
