<?xml version="1.0" encoding="utf-8"?>
<svg viewBox="-60 0 1770 900" width="1770" height="900" xmlns="http://www.w3.org/2000/svg">
    <polygon fill="#d3abd3" points="957 450 539 900 1396 900"/>
    <polygon fill="#9080a2" points="957 450 872.9 900 1396 900"/>
    <polygon fill="#b68bbd" points="-60 900 398 662 816 900"/>
    <polygon fill="#9079aa" points="337 900 398 662 816 900"/>
    <polygon fill="#a880b8" points="1203 546 1552 900 876 900"/>
    <polygon fill="#7e5da4" points="1203 546 1552 900 1162 900"/>
    <polygon fill="#9771b5" points="641 695 886 900 367 900"/>
    <polygon fill="#75529d" points="587 900 641 695 886 900"/>
    <polygon fill="#7f61ab" points="1710 900 1401 632 1096 900"/>
    <polygon fill="#694791" points="1710 900 1401 632 1365 900"/>
    <polygon fill="#8f82ba" points="1210 900 971 687 725 900"/>
    <polygon fill="#5f4086" points="943 900 1210 900 971 687"/>
</svg>
